<?xml version="1.0" encoding="UTF-8" standalone="no"?>
<svg
   xmlns:dc="http://purl.org/dc/elements/1.1/"
   xmlns:cc="http://creativecommons.org/ns#"
   xmlns:rdf="http://www.w3.org/1999/02/22-rdf-syntax-ns#"
   xmlns:svg="http://www.w3.org/2000/svg"
   xmlns="http://www.w3.org/2000/svg"
   height="212.48346"
   width="199.685"
   xml:space="preserve"
   enable-background="new 0 0 320 102.667"
   viewBox="0 0 199.685 212.48346"
   y="0px"
   x="0px"
   id="Layer_1"
   version="1.1"><metadata
     id="metadata71"><rdf:RDF><cc:Work
         rdf:about=""><dc:format>image/svg+xml</dc:format><dc:type
           rdf:resource="http://purl.org/dc/dcmitype/StillImage" /><dc:title></dc:title></cc:Work></rdf:RDF></metadata><defs
     id="defs69" /><g
     style="fill:#ffffff"
     transform="translate(-1.011,111.59346)"
     id="g14"><path
       style="fill:#ffffff"
       d="m 17.937,87.138 c -4.23,0 -8.138,-1.708 -10.09,-3.336 V 100.89 H 1.011 V 45.881 h 5.777 l 0.57,4.069 c 1.872,-2.605 6.266,-4.883 11.068,-4.883 11.879,0 14.971,9.603 14.971,20.995 0,12.694 -4.231,21.076 -15.46,21.076 z M 7.847,78.431 c 2.035,1.627 5.289,3.173 9.113,3.173 7.893,0 9.602,-6.183 9.602,-15.622 0,-9.44 -1.464,-15.381 -9.113,-15.381 -4.069,0 -7.322,1.954 -9.602,3.988 z"
       id="path2" /><path
       style="fill:#ffffff"
       d="m 62.365,51.578 c -4.556,0.895 -9.195,2.441 -12.613,4.232 v 30.432 h -6.835 v -40.36 h 5.615 l 0.731,4.719 c 2.442,-2.44 6.918,-4.8 12.207,-5.289 z"
       id="path4" /><path
       style="fill:#ffffff"
       d="m 73.106,69.073 c 0.408,8.544 2.523,12.613 10.742,12.613 4.312,0 8.788,-1.059 11.88,-2.278 l 1.058,5.206 c -3.336,1.383 -8.627,2.443 -13.02,2.443 -14.566,0 -17.496,-9.929 -17.496,-21.239 0,-11.635 3.824,-20.75 16.194,-20.75 10.985,0 15.542,7.731 15.542,17.415 v 6.591 h -24.9 z m 0,-5.369 h 18.309 v -1.466 c 0,-7.487 -2.359,-12.043 -9.033,-12.043 -7.566,0 -9.194,5.452 -9.276,13.509 z"
       id="path6" /><path
       style="fill:#ffffff"
       d="m 117.372,87.058 c -4.069,0 -9.277,-0.896 -12.776,-2.687 l 1.302,-5.369 c 3.092,1.464 7.568,2.523 11.149,2.523 5.369,0 8.219,-1.466 8.219,-6.022 0,-4.315 -2.93,-5.615 -8.382,-6.918 -8.869,-2.115 -12.205,-5.208 -12.205,-12.124 0,-7.569 4.15,-11.393 13.588,-11.393 3.905,0 8.057,0.733 10.904,2.033 l -1.139,5.454 c -2.522,-1.059 -6.429,-1.954 -9.602,-1.954 -5.127,0 -7.08,1.383 -7.08,5.453 0,4.231 1.953,5.045 7.73,6.59 7.893,2.116 12.857,4.638 12.857,12.37 0,8.461 -6.185,12.044 -14.565,12.044 z"
       id="path8" /><path
       style="fill:#ffffff"
       d="m 161.069,85.836 c -1.709,0.65 -5.697,1.221 -8.299,1.221 -6.917,0 -9.846,-3.826 -9.846,-10.092 V 51.416 h -6.998 v -5.535 h 6.998 v -9.846 l 6.835,-0.976 v 10.822 h 11.473 l -0.569,5.535 h -10.904 v 25.226 c 0,3.742 0.895,4.883 4.638,4.883 1.628,0 3.987,-0.327 6.103,-0.816 z"
       id="path10" /><path
       style="fill:#ffffff"
       d="m 183.689,87.058 c -11.718,0 -17.008,-8.788 -17.008,-20.995 0,-12.206 5.29,-20.995 17.008,-20.995 11.717,0 17.007,8.788 17.007,20.995 0,12.206 -5.29,20.995 -17.007,20.995 z m 0,-36.457 c -8.463,0 -10.173,6.916 -10.173,15.462 0,8.544 1.71,15.462 10.173,15.462 8.462,0 10.172,-6.918 10.172,-15.462 0,-8.546 -1.71,-15.462 -10.172,-15.462 z"
       id="path12" /></g><circle
     transform="rotate(-45)"
     cx="82.205765"
     cy="91.888741"
     id="ellipse16"
     r="6.8469009"
     style="fill:#5b87da;stroke-width:1.47785473" /><circle
     transform="rotate(-45)"
     cx="82.205536"
     cy="118.50909"
     id="ellipse18"
     r="7.6065183"
     style="fill:#5b87da;stroke-width:1.47785473" /><ellipse
     transform="rotate(-45)"
     cx="82.202629"
     cy="145.12852"
     rx="8.3661356"
     ry="8.3646574"
     id="ellipse20"
     style="fill:#5b87da;stroke-width:1.47785473" /><ellipse
     transform="rotate(-45)"
     cx="82.204376"
     cy="171.71994"
     rx="9.1257534"
     ry="9.1242752"
     id="ellipse22"
     style="fill:#5b87da;stroke-width:1.47785473" /><circle
     transform="rotate(-45)"
     cx="55.601227"
     cy="65.283913"
     id="ellipse24"
     r="6.0872836"
     style="fill:#1edcff;stroke-width:1.47785473" /><circle
     transform="rotate(-45)"
     cx="55.599701"
     cy="91.904053"
     id="ellipse26"
     r="6.8469009"
     style="fill:#1edcff;stroke-width:1.47785473" /><circle
     transform="rotate(-45)"
     cx="55.601662"
     cy="118.49569"
     id="ellipse28"
     r="7.6065183"
     style="fill:#1edcff;stroke-width:1.47785473" /><circle
     transform="rotate(-45)"
     cx="55.601952"
     cy="145.10403"
     id="ellipse30"
     r="8.3661356"
     style="fill:#1edcff;stroke-width:1.47785473" /><ellipse
     transform="rotate(-45)"
     cx="55.596741"
     cy="171.73222"
     rx="9.1257534"
     ry="9.1242752"
     id="ellipse32"
     style="fill:#1edcff;stroke-width:1.47785473" /><circle
     style="stroke-width:1.47785473;fill:#ffffff"
     transform="rotate(-45)"
     cx="28.996061"
     cy="38.709999"
     id="ellipse34"
     r="5.3276663" /><circle
     style="stroke-width:1.47785473;fill:#ffffff"
     transform="rotate(-45)"
     cx="28.998112"
     cy="65.283966"
     id="ellipse36"
     r="6.0872836" /><circle
     style="stroke-width:1.47785473;fill:#ffffff"
     transform="rotate(-45)"
     cx="28.99378"
     cy="91.918854"
     id="ellipse38"
     r="6.8469009" /><circle
     style="stroke-width:1.47785473;fill:#ffffff"
     transform="rotate(-45)"
     cx="28.994154"
     cy="118.52271"
     id="ellipse40"
     r="7.6065183" /><ellipse
     style="stroke-width:1.47785473;fill:#ffffff"
     transform="rotate(-45)"
     cx="28.991501"
     cy="145.12979"
     rx="8.3661356"
     ry="8.3646574"
     id="ellipse42" /><ellipse
     style="stroke-width:1.47785473;fill:#ffffff"
     transform="rotate(-45)"
     cx="28.998375"
     cy="171.70732"
     rx="9.1257534"
     ry="9.1242752"
     id="ellipse44" /><g
     transform="matrix(1.4778689,0,0,1.4778689,-280.29691,-2.872528)"
     id="g60"><circle
       style="fill:#5b87da"
       r="4.119"
       id="ellipse48"
       cy="57.500999"
       cx="247.51199"
       transform="matrix(0.7071,-0.7071,0.7071,0.7071,31.8295,191.8493)" /><circle
       style="fill:#5b87da"
       r="4.119"
       id="ellipse50"
       cy="70.230003"
       cx="234.783"
       transform="matrix(0.7071,-0.7071,0.7071,0.7071,19.101,186.5767)" /><circle
       style="fill:#5b87da"
       r="4.119"
       id="ellipse52"
       cy="82.959"
       cx="222.05299"
       transform="matrix(0.7071,-0.7071,0.7071,0.7071,6.3767,181.3135)" /><circle
       style="fill:#5b87da"
       r="4.119"
       id="ellipse54"
       cy="82.959999"
       cx="247.51199"
       transform="matrix(0.7071,-0.7071,0.7071,0.7071,13.8286,199.3076)" /><circle
       style="fill:#5b87da"
       r="4.119"
       id="ellipse56"
       cy="82.960999"
       cx="272.97"
       transform="matrix(0.7071,-0.7071,0.7071,0.7071,21.2889,217.318)" /><circle
       style="fill:#5b87da"
       r="4.119"
       id="ellipse58"
       cy="70.230003"
       cx="260.241"
       transform="matrix(0.7071,-0.7071,0.7071,0.7071,26.5569,204.578)" /></g></svg>