<?xml version="1.0" encoding="UTF-8" standalone="no"?>
<svg
   xmlns:dc="http://purl.org/dc/elements/1.1/"
   xmlns:cc="http://creativecommons.org/ns#"
   xmlns:rdf="http://www.w3.org/1999/02/22-rdf-syntax-ns#"
   xmlns:svg="http://www.w3.org/2000/svg"
   xmlns="http://www.w3.org/2000/svg"
   xmlns:sodipodi="http://sodipodi.sourceforge.net/DTD/sodipodi-0.dtd"
   xmlns:inkscape="http://www.inkscape.org/namespaces/inkscape"
   inkscape:version="1.0beta1 (32d4812, 2019-09-19)"
   inkscape:export-ydpi="193.27"
   inkscape:export-xdpi="193.27"
   inkscape:export-filename="/Users/brian/bitmap.png"
   sodipodi:docname="presto-icon-white.svg"
   height="428.26239"
   width="500"
   xml:space="preserve"
   enable-background="new 0 0 320 102.667"
   viewBox="0 0 500 428.2624"
   y="0px"
   x="0px"
   id="Layer_1"
   version="1.1">
  <sodipodi:namedview
     inkscape:current-layer="Layer_1"
     inkscape:window-maximized="0"
     inkscape:window-y="158"
     inkscape:window-x="826"
     inkscape:cy="560"
     inkscape:cx="399.99996"
     inkscape:zoom="0.35"
     showgrid="false"
     id="namedview37"
     inkscape:window-height="907"
     inkscape:window-width="1600"
     inkscape:pageshadow="2"
     inkscape:pageopacity="0"
     guidetolerance="10"
     gridtolerance="10"
     objecttolerance="10"
     borderopacity="1"
     inkscape:document-rotation="0"
     bordercolor="#666666"
     pagecolor="#ffffff" />
  <metadata
     id="metadata71">
    <rdf:RDF>
      <cc:Work
         rdf:about="">
        <dc:format>image/svg+xml</dc:format>
        <dc:type
           rdf:resource="http://purl.org/dc/dcmitype/StillImage" />
        <dc:title />
      </cc:Work>
    </rdf:RDF>
  </metadata>
  <defs
     id="defs69" />
  <g
     transform="matrix(5.0302202,0,0,5.0302202,-1096.2445,-9.7772194)"
     id="g62"
     style="fill:#ffffff">
    <g
       id="g46"
       style="fill:#ffffff">
      <circle
         transform="matrix(0.7071,-0.7071,0.7071,0.7071,75.2889,194.9389)"
         cx="272.97"
         cy="6.5830002"
         id="ellipse16"
         r="4.6329999"
         style="fill:#ffffff" />
      <circle
         transform="matrix(0.7071,-0.7071,0.7071,0.7071,70.0236,207.6766)"
         cx="285.70001"
         cy="19.312"
         id="ellipse18"
         r="5.1469998"
         style="fill:#ffffff" />
      <ellipse
         transform="matrix(0.7071,-0.7071,0.7071,0.7071,64.7566,220.4137)"
         cx="298.42899"
         cy="32.042"
         rx="5.6609998"
         ry="5.6599998"
         id="ellipse20"
         style="fill:#ffffff" />
      <ellipse
         transform="matrix(0.7071,-0.7071,0.7071,0.7071,59.4777,233.1359)"
         cx="311.159"
         cy="44.771999"
         rx="6.1750002"
         ry="6.1739998"
         id="ellipse22"
         style="fill:#ffffff" />
      <circle
         transform="matrix(0.7071,-0.7071,0.7071,0.7071,67.8322,176.9367)"
         cx="247.511"
         cy="6.5830002"
         id="ellipse24"
         r="4.119"
         style="fill:#ffffff" />
      <circle
         transform="matrix(0.7071,-0.7071,0.7071,0.7071,62.5669,189.6742)"
         cx="260.23999"
         cy="19.312"
         id="ellipse26"
         r="4.6329999"
         style="fill:#ffffff" />
      <circle
         transform="matrix(0.7071,-0.7071,0.7071,0.7071,57.2882,202.3964)"
         cx="272.97"
         cy="32.042"
         id="ellipse28"
         r="5.1469998"
         style="fill:#ffffff" />
      <circle
         transform="matrix(0.7071,-0.7071,0.7071,0.7071,52.0167,215.1274)"
         cx="285.70001"
         cy="44.771999"
         id="ellipse30"
         r="5.6609998"
         style="fill:#ffffff" />
      <ellipse
         transform="matrix(0.7071,-0.7071,0.7071,0.7071,46.7535,227.8705)"
         cx="298.42899"
         cy="57.500999"
         rx="6.1750002"
         ry="6.1739998"
         id="ellipse32"
         style="fill:#ffffff" />
      <circle
         transform="matrix(0.7071,-0.7071,0.7071,0.7071,60.3907,158.9503)"
         cx="222.052"
         cy="6.5819998"
         id="ellipse34"
         r="3.605"
         style="fill:#ffffff" />
      <circle
         transform="matrix(0.7071,-0.7071,0.7071,0.7071,55.1036,171.664)"
         cx="234.782"
         cy="19.312"
         id="ellipse36"
         r="4.119"
         style="fill:#ffffff" />
      <circle
         transform="matrix(0.7071,-0.7071,0.7071,0.7071,49.8433,184.4092)"
         cx="247.511"
         cy="32.042"
         id="ellipse38"
         r="4.6329999"
         style="fill:#ffffff" />
      <circle
         transform="matrix(0.7071,-0.7071,0.7071,0.7071,44.5704,197.1387)"
         cx="260.241"
         cy="44.771"
         id="ellipse40"
         r="5.1469998"
         style="fill:#ffffff" />
      <ellipse
         transform="matrix(0.7071,-0.7071,0.7071,0.7071,39.2976,209.8698)"
         cx="272.97"
         cy="57.500999"
         rx="5.6609998"
         ry="5.6599998"
         id="ellipse42"
         style="fill:#ffffff" />
      <ellipse
         transform="matrix(0.7071,-0.7071,0.7071,0.7071,34.0145,222.5829)"
         cx="285.70001"
         cy="70.231003"
         rx="6.1750002"
         ry="6.1739998"
         id="ellipse44"
         style="fill:#ffffff" />
    </g>
    <g
       id="g60"
       style="fill:#ffffff">
      <circle
         transform="matrix(0.7071,-0.7071,0.7071,0.7071,31.8295,191.8493)"
         cx="247.51199"
         cy="57.500999"
         id="ellipse48"
         r="4.119"
         style="fill:#ffffff" />
      <circle
         transform="matrix(0.7071,-0.7071,0.7071,0.7071,19.101,186.5767)"
         cx="234.783"
         cy="70.230003"
         id="ellipse50"
         r="4.119"
         style="fill:#ffffff" />
      <circle
         transform="matrix(0.7071,-0.7071,0.7071,0.7071,6.3767,181.3135)"
         cx="222.05299"
         cy="82.959"
         id="ellipse52"
         r="4.119"
         style="fill:#ffffff" />
      <circle
         transform="matrix(0.7071,-0.7071,0.7071,0.7071,13.8286,199.3076)"
         cx="247.51199"
         cy="82.959999"
         id="ellipse54"
         r="4.119"
         style="fill:#ffffff" />
      <circle
         transform="matrix(0.7071,-0.7071,0.7071,0.7071,21.2889,217.318)"
         cx="272.97"
         cy="82.960999"
         id="ellipse56"
         r="4.119"
         style="fill:#ffffff" />
      <circle
         transform="matrix(0.7071,-0.7071,0.7071,0.7071,26.5569,204.578)"
         cx="260.241"
         cy="70.230003"
         id="ellipse58"
         r="4.119"
         style="fill:#ffffff" />
    </g>
  </g>
</svg>
