<?xml version="1.0" encoding="UTF-8" standalone="no"?>
<svg
   xmlns:dc="http://purl.org/dc/elements/1.1/"
   xmlns:cc="http://creativecommons.org/ns#"
   xmlns:rdf="http://www.w3.org/1999/02/22-rdf-syntax-ns#"
   xmlns:svg="http://www.w3.org/2000/svg"
   xmlns="http://www.w3.org/2000/svg"
   height="134.57561"
   width="157.11818"
   xml:space="preserve"
   enable-background="new 0 0 320 102.667"
   viewBox="0 0 157.11818 134.57561"
   y="0px"
   x="0px"
   id="Layer_1"
   version="1.1"><metadata
     id="metadata71"><rdf:RDF><cc:Work
         rdf:about=""><dc:format>image/svg+xml</dc:format><dc:type
           rdf:resource="http://purl.org/dc/dcmitype/StillImage" /><dc:title></dc:title></cc:Work></rdf:RDF></metadata><defs
     id="defs69" /><g
     transform="matrix(1.5806781,0,0,1.5806781,-344.4799,-3.0723579)"
     id="g62"><g
       id="g46"><circle
         transform="matrix(0.7071,-0.7071,0.7071,0.7071,75.2889,194.9389)"
         cx="272.97"
         cy="6.5830002"
         id="ellipse16"
         r="4.6329999"
         style="fill:#5b87da" /><circle
         transform="matrix(0.7071,-0.7071,0.7071,0.7071,70.0236,207.6766)"
         cx="285.70001"
         cy="19.312"
         id="ellipse18"
         r="5.1469998"
         style="fill:#5b87da" /><ellipse
         transform="matrix(0.7071,-0.7071,0.7071,0.7071,64.7566,220.4137)"
         cx="298.42899"
         cy="32.042"
         rx="5.6609998"
         ry="5.6599998"
         id="ellipse20"
         style="fill:#5b87da" /><ellipse
         transform="matrix(0.7071,-0.7071,0.7071,0.7071,59.4777,233.1359)"
         cx="311.159"
         cy="44.771999"
         rx="6.1750002"
         ry="6.1739998"
         id="ellipse22"
         style="fill:#5b87da" /><circle
         transform="matrix(0.7071,-0.7071,0.7071,0.7071,67.8322,176.9367)"
         cx="247.511"
         cy="6.5830002"
         id="ellipse24"
         r="4.119"
         style="fill:#1edcff" /><circle
         transform="matrix(0.7071,-0.7071,0.7071,0.7071,62.5669,189.6742)"
         cx="260.23999"
         cy="19.312"
         id="ellipse26"
         r="4.6329999"
         style="fill:#1edcff" /><circle
         transform="matrix(0.7071,-0.7071,0.7071,0.7071,57.2882,202.3964)"
         cx="272.97"
         cy="32.042"
         id="ellipse28"
         r="5.1469998"
         style="fill:#1edcff" /><circle
         transform="matrix(0.7071,-0.7071,0.7071,0.7071,52.0167,215.1274)"
         cx="285.70001"
         cy="44.771999"
         id="ellipse30"
         r="5.6609998"
         style="fill:#1edcff" /><ellipse
         transform="matrix(0.7071,-0.7071,0.7071,0.7071,46.7535,227.8705)"
         cx="298.42899"
         cy="57.500999"
         rx="6.1750002"
         ry="6.1739998"
         id="ellipse32"
         style="fill:#1edcff" /><circle
         transform="matrix(0.7071,-0.7071,0.7071,0.7071,60.3907,158.9503)"
         cx="222.052"
         cy="6.5819998"
         id="ellipse34"
         r="3.605" /><circle
         transform="matrix(0.7071,-0.7071,0.7071,0.7071,55.1036,171.664)"
         cx="234.782"
         cy="19.312"
         id="ellipse36"
         r="4.119" /><circle
         transform="matrix(0.7071,-0.7071,0.7071,0.7071,49.8433,184.4092)"
         cx="247.511"
         cy="32.042"
         id="ellipse38"
         r="4.6329999" /><circle
         transform="matrix(0.7071,-0.7071,0.7071,0.7071,44.5704,197.1387)"
         cx="260.241"
         cy="44.771"
         id="ellipse40"
         r="5.1469998" /><ellipse
         transform="matrix(0.7071,-0.7071,0.7071,0.7071,39.2976,209.8698)"
         cx="272.97"
         cy="57.500999"
         rx="5.6609998"
         ry="5.6599998"
         id="ellipse42" /><ellipse
         transform="matrix(0.7071,-0.7071,0.7071,0.7071,34.0145,222.5829)"
         cx="285.70001"
         cy="70.231003"
         rx="6.1750002"
         ry="6.1739998"
         id="ellipse44" /></g><g
       id="g60"><circle
         transform="matrix(0.7071,-0.7071,0.7071,0.7071,31.8295,191.8493)"
         cx="247.51199"
         cy="57.500999"
         id="ellipse48"
         r="4.119"
         style="fill:#5b87da" /><circle
         transform="matrix(0.7071,-0.7071,0.7071,0.7071,19.101,186.5767)"
         cx="234.783"
         cy="70.230003"
         id="ellipse50"
         r="4.119"
         style="fill:#5b87da" /><circle
         transform="matrix(0.7071,-0.7071,0.7071,0.7071,6.3767,181.3135)"
         cx="222.05299"
         cy="82.959"
         id="ellipse52"
         r="4.119"
         style="fill:#5b87da" /><circle
         transform="matrix(0.7071,-0.7071,0.7071,0.7071,13.8286,199.3076)"
         cx="247.51199"
         cy="82.959999"
         id="ellipse54"
         r="4.119"
         style="fill:#5b87da" /><circle
         transform="matrix(0.7071,-0.7071,0.7071,0.7071,21.2889,217.318)"
         cx="272.97"
         cy="82.960999"
         id="ellipse56"
         r="4.119"
         style="fill:#5b87da" /><circle
         transform="matrix(0.7071,-0.7071,0.7071,0.7071,26.5569,204.578)"
         cx="260.241"
         cy="70.230003"
         id="ellipse58"
         r="4.119"
         style="fill:#5b87da" /></g></g></svg>